HIERARCHY
ROOT hip
{
  OFFSET 115.517 83.7831 -12.1774
  CHANNELS 6 Xposition Yposition Zposition Zrotation Xrotation Yrotation
  JOINT abdomen
  {
    OFFSET 0 20.6881 -0.73152
    CHANNELS 3 Zrotation Xrotation Yrotation
    JOINT chest
    {
      OFFSET 0 11.7043 -0.48768
      CHANNELS 3 Zrotation Xrotation Yrotation
      JOINT neck
      {
        OFFSET 0 22.1894 -2.19456
        CHANNELS 3 Zrotation Xrotation Yrotation
        JOINT head
        {
          OFFSET -0.24384 7.07133 1.2192
          CHANNELS 3 Zrotation Xrotation Yrotation
          JOINT leftEye
          {
            OFFSET 4.14528 8.04674 8.04672
            CHANNELS 3 Zrotation Xrotation Yrotation
            End Site
            {
              OFFSET 1 0 0
            }
          }
          JOINT rightEye
          {
            OFFSET -3.6576 8.04674 8.04672
            CHANNELS 3 Zrotation Xrotation Yrotation
            End Site
            {
              OFFSET 1 0 0
            }
          }
        }
      }
      JOINT rCollar
      {
        OFFSET -2.68224 19.2634 -4.8768
        CHANNELS 3 Zrotation Xrotation Yrotation
        JOINT rShldr
        {
          OFFSET -8.77824 -1.95073 1.46304
          CHANNELS 3 Zrotation Xrotation Yrotation
          JOINT rForeArm
          {
            OFFSET -28.1742 -1.7115 0.48768
            CHANNELS 3 Zrotation Xrotation Yrotation
            JOINT rHand
            {
              OFFSET -22.5879 0.773209 7.07136
              CHANNELS 3 Zrotation Xrotation Yrotation
              JOINT rThumb1
              {
                OFFSET -1.2192 -0.487915 3.41376
                CHANNELS 3 Zrotation Xrotation Yrotation
                JOINT rThumb2
                {
                  OFFSET -3.37035 -0.52449 3.41376
                  CHANNELS 3 Zrotation Xrotation Yrotation
                  End Site
                  {
                    OFFSET -1.78271 -1.18214 1.43049
                  }
                }
              }
              JOINT rIndex1
              {
                OFFSET -7.75947 0.938293 5.60832
                CHANNELS 3 Zrotation Xrotation Yrotation
                JOINT rIndex2
                {
                  OFFSET -2.54057 -0.884171 1.56538
                  CHANNELS 3 Zrotation Xrotation Yrotation
                  End Site
                  {
                    OFFSET -1.62519 -0.234802 1.16502
                  }
                }
              }
              JOINT rMid1
              {
                OFFSET -8.24714 1.18213 3.41376
                CHANNELS 3 Zrotation Xrotation Yrotation
                JOINT rMid2
                {
                  OFFSET -3.10165 -0.590103 1.0647
                  CHANNELS 3 Zrotation Xrotation Yrotation
                  End Site
                  {
                    OFFSET -2.48547 -0.328903 0.83742
                  }
                }
              }
              JOINT rRing1
              {
                OFFSET -8.82822 0.546677 1.51678
                CHANNELS 3 Zrotation Xrotation Yrotation
                JOINT rRing2
                {
                  OFFSET -2.60934 -0.819778 -0.0198488
                  CHANNELS 3 Zrotation Xrotation Yrotation
                  End Site
                  {
                    OFFSET -2.33842 -0.294052 0.168128
                  }
                }
              }
              JOINT rPinky1
              {
                OFFSET -8.27202 -0.0477905 -0.4584
                CHANNELS 3 Zrotation Xrotation Yrotation
                JOINT rPinky2
                {
                  OFFSET -1.82734 -0.647385 -0.700984
                  CHANNELS 3 Zrotation Xrotation Yrotation
                  End Site
                  {
                    OFFSET -1.69225 -0.51767 -0.607171
                  }
                }
              }
            }
          }
        }
      }
      JOINT lCollar
      {
        OFFSET 2.68224 19.2634 -4.8768
        CHANNELS 3 Zrotation Xrotation Yrotation
        JOINT lShldr
        {
          OFFSET 8.77824 -1.95073 1.46304
          CHANNELS 3 Zrotation Xrotation Yrotation
          JOINT lForeArm
          {
            OFFSET 28.1742 -1.7115 0.48768
            CHANNELS 3 Zrotation Xrotation Yrotation
            JOINT lHand
            {
              OFFSET 22.5879 0.773209 7.07136
              CHANNELS 3 Zrotation Xrotation Yrotation
              JOINT lThumb1
              {
                OFFSET 1.2192 -0.487915 3.41376
                CHANNELS 3 Zrotation Xrotation Yrotation
                JOINT lThumb2
                {
                  OFFSET 3.37035 -0.52449 3.41376
                  CHANNELS 3 Zrotation Xrotation Yrotation
                  End Site
                  {
                    OFFSET 1.78271 -1.18214 1.43049
                  }
                }
              }
              JOINT lIndex1
              {
                OFFSET 7.75947 0.938293 5.60832
                CHANNELS 3 Zrotation Xrotation Yrotation
                JOINT lIndex2
                {
                  OFFSET 2.54057 -0.884171 1.56538
                  CHANNELS 3 Zrotation Xrotation Yrotation
                  End Site
                  {
                    OFFSET 1.62519 -0.234802 1.16502
                  }
                }
              }
              JOINT lMid1
              {
                OFFSET 8.24714 1.18213 3.41376
                CHANNELS 3 Zrotation Xrotation Yrotation
                JOINT lMid2
                {
                  OFFSET 3.10165 -0.590103 1.0647
                  CHANNELS 3 Zrotation Xrotation Yrotation
                  End Site
                  {
                    OFFSET 2.48547 -0.328903 0.83742
                  }
                }
              }
              JOINT lRing1
              {
                OFFSET 8.82822 0.546677 1.51678
                CHANNELS 3 Zrotation Xrotation Yrotation
                JOINT lRing2
                {
                  OFFSET 2.60934 -0.819778 -0.0198488
                  CHANNELS 3 Zrotation Xrotation Yrotation
                  End Site
                  {
                    OFFSET 2.33842 -0.294052 0.168128
                  }
                }
              }
              JOINT lPinky1
              {
                OFFSET 8.27202 -0.0477905 -0.4584
                CHANNELS 3 Zrotation Xrotation Yrotation
                JOINT lPinky2
                {
                  OFFSET 1.82734 -0.647385 -0.700984
                  CHANNELS 3 Zrotation Xrotation Yrotation
                  End Site
                  {
                    OFFSET 1.69225 -0.51767 -0.607171
                  }
                }
              }
            }
          }
        }
      }
    }
  }
  JOINT rButtock
  {
    OFFSET -8.77824 4.35084 1.2192
    CHANNELS 3 Zrotation Xrotation Yrotation
    JOINT rThigh
    {
      OFFSET 0 -1.70687 -2.19456
      CHANNELS 3 Zrotation Xrotation Yrotation
      JOINT rShin
      {
        OFFSET 0 -36.8199 0.73152
        CHANNELS 3 Zrotation Xrotation Yrotation
        JOINT rFoot
        {
          OFFSET 0.73152 -45.1104 -5.12064
          CHANNELS 3 Zrotation Xrotation Yrotation
          End Site
          {
            OFFSET -1.1221 -3.69964 12.103
          }
        }
      }
    }
  }
  JOINT lButtock
  {
    OFFSET 8.77824 4.35084 1.2192
    CHANNELS 3 Zrotation Xrotation Yrotation
    JOINT lThigh
    {
      OFFSET 0 -1.70687 -2.19456
      CHANNELS 3 Zrotation Xrotation Yrotation
      JOINT lShin
      {
        OFFSET 0 -36.8199 0.73152
        CHANNELS 3 Zrotation Xrotation Yrotation
        JOINT lFoot
        {
          OFFSET -0.73152 -45.1104 -5.12064
          CHANNELS 3 Zrotation Xrotation Yrotation
          End Site
          {
            OFFSET 1.1221 -3.69964 12.103
          }
        }
      }
    }
  }
}
MOTION
Frames:	6
Frame Time:	0.00833333
14.7292 85.6228 0.507023 -2.22816 0.0101903 0.042629 2.93082 0.00146921 0.0791269 0.807952 0.0160281 0.139788 2.18201e-014 0 1.98785e-016 6.49405e-014 3.18055e-015 6.4605e-016 -0 0 0 -0 0 0 1.09816e-014 -4.36783e-017 2.48481e-016 2.30249e-013 -9.50439e-016 3.97569e-015 3.93151e-012 -1.20483e-012 9.54166e-015 4.49206e-011 1.00908e-012 5.34333e-013 1.05976e-010 -4.2387e-013 1.18953e-012 1.83005e-010 -7.34708e-013 2.03794e-012 1.05986e-010 -4.20628e-013 1.18317e-012 7.73091 5.47488 0.417314 1.05978e-010 -4.23511e-013 1.19271e-012 2.90554 0.965183 0.102902 1.05999e-010 -4.22815e-013 1.18635e-012 10.2786 0.731801 0.0259123 1.05976e-010 -4.24604e-013 1.18635e-012 2.22167 -0.733487 -0.20892 1.09848e-014 -4.29018e-017 4.96962e-017 2.2629e-013 -1.34801e-015 1.98785e-015 3.92118e-012 1.1448e-012 0 4.4954e-011 -1.35516e-012 5.53417e-013 1.06023e-010 -4.51199e-013 1.17999e-012 1.83103e-010 -7.76055e-013 2.04589e-012 1.06016e-010 -4.50048e-013 1.19589e-012 -7.73091 5.47488 -0.417314 1.06021e-010 -4.50943e-013 1.18635e-012 -2.90554 0.965183 -0.102902 1.06017e-010 -4.51042e-013 1.18635e-012 -10.2786 0.731801 -0.0259123 1.06023e-010 -4.51639e-013 1.17999e-012 -2.22167 -0.733487 0.20892 -2.03217e-016 0 -3.88251e-019 2.69421 -8.9952 -0.298799 0.00819325 10.7114 0.212013 -0.527443 -1.72851 0.0239265 2.03217e-016 0 3.88251e-019 1.76004 -1.93355 -0.0120228 0.00859184 -2.07865 0.0705676 0.465177 3.99976 -0.133415 
12.1774 84.6035 -2.99109 -10.005 -9.97191 25.3277 2.22585 -2.98936 0.262455 1.24218 -0.760028 0.191895 -0.199218 3.33922 -0.210422 -1.22463 -1.03409 -0.727983 -0 0 0 -0 0 0 9.22301e-015 3.64412e-013 -9.02374e-015 22.7106 4.80274 -3.6213 -4.32247 -1.98483 6.72856 0.0156872 2.78065 0.389137 7.73482e-010 2.65092e-010 -1.3263e-009 1.32536e-009 4.60291e-010 -2.30044e-009 7.7349e-010 2.65093e-010 -1.32631e-009 7.73091 5.47488 0.417314 7.73484e-010 2.6509e-010 -1.3263e-009 2.90554 0.965183 0.102902 7.735e-010 2.65091e-010 -1.3263e-009 10.2786 0.731801 0.0259123 7.73479e-010 2.65091e-010 -1.3263e-009 2.22167 -0.733487 -0.20892 9.1908e-015 3.64412e-013 -9.2497e-015 -23.7682 3.00687 4.70137 5.33011 -2.69351 -8.00897 -0.0395199 4.41223 -0.613476 -2.04671e-010 3.09671e-010 1.01481e-009 -3.41222e-010 5.35412e-010 1.7598e-009 -2.04677e-010 3.09673e-010 1.01482e-009 -7.73091 5.47488 -0.417314 -2.04672e-010 3.09673e-010 1.01482e-009 -2.90554 0.965183 -0.102902 -2.04676e-010 3.09672e-010 1.01482e-009 -10.2786 0.731801 -0.0259123 -2.04669e-010 3.09673e-010 1.01481e-009 -2.22167 -0.733487 0.20892 -2.03217e-016 0 -3.88251e-019 2.29265 -11.095 4.86199 0.0258015 14.3374 0.251471 -1.10781 -5.34652 -4.81316 2.03217e-016 0 3.88251e-019 1.83797 -4.71429 -6.19414 0.00927513 3.1917 -0.0614675 1.20147 1.61329 8.00545 
12.1743 84.6034 -3.0059 -9.81088 -13.8535 53.4067 1.50206 -6.15065 0.461211 1.70139 -1.58086 0.24786 -0.384563 6.86952 -0.435885 -2.54444 -2.12702 -1.49937 -0 0 0 -0 0 0 7.44935e-015 7.85143e-013 -1.95244e-014 47.3865 9.81104 -7.53311 -8.3889 -3.99189 13.8675 -0.00903536 5.73134 0.805197 1.49793e-009 5.56568e-010 -2.76928e-009 2.56513e-009 9.6637e-010 -4.80323e-009 1.49793e-009 5.56568e-010 -2.76928e-009 7.73091 5.47488 0.417314 1.49793e-009 5.56565e-010 -2.76927e-009 2.90554 0.965183 0.102902 1.49794e-009 5.56567e-010 -2.76928e-009 10.2786 0.731801 0.0259123 1.49792e-009 5.56567e-010 -2.76927e-009 2.22167 -0.733487 -0.20892 7.37923e-015 7.85143e-013 -1.97791e-014 -49.4303 6.12094 9.71187 10.1535 -5.36488 -16.5307 0.0226405 9.07888 -1.27478 -5.41327e-010 6.43161e-010 2.1121e-009 -9.09361e-010 1.11201e-009 3.66266e-009 -5.41332e-010 6.43164e-010 2.11211e-009 -7.73091 5.47488 -0.417314 -5.41327e-010 6.43164e-010 2.1121e-009 -2.90554 0.965183 -0.102902 -5.41331e-010 6.43163e-010 2.1121e-009 -10.2786 0.731801 -0.0259123 -5.41323e-010 6.43165e-010 2.1121e-009 -2.22167 -0.733487 0.20892 -2.03217e-016 0 -3.88251e-019 2.2844 -13.1845 10.3988 0.0386104 18.1708 0.295672 -2.38826 -9.07026 -10.0026 2.03217e-016 0 3.88251e-019 1.26553 -7.52117 -12.8047 0.0366769 8.76343 -0.202963 2.70582 -0.831034 16.6142 
12.1624 84.6043 -3.02246 -7.51296 -8.28809 77.0592 0.874003 -8.97056 0.635818 2.11486 -2.31212 0.2963 -0.523106 10.0171 -0.63995 -3.75279 -3.10026 -2.18679 -0 0 0 -0 0 0 5.70576e-015 1.09332e-012 -2.75682e-014 69.9893 14.1746 -11.1699 -11.5954 -5.6267 20.2755 -0.0672734 8.34039 1.1785 2.10849e-009 7.96122e-010 -3.98128e-009 3.61007e-009 1.38234e-009 -6.90541e-009 2.1085e-009 7.96121e-010 -3.98128e-009 7.73091 5.47488 0.417314 2.10849e-009 7.96117e-010 -3.98127e-009 2.90554 0.965183 0.102902 2.1085e-009 7.9612e-010 -3.98128e-009 10.2786 0.731801 0.0259123 2.10848e-009 7.96121e-010 -3.98127e-009 2.22167 -0.733487 -0.20892 5.60282e-015 1.09332e-012 -2.78485e-014 -72.7831 8.77674 14.255 13.789 -7.45033 -24.2176 0.17142 13.2305 -1.88502 -8.26059e-010 9.29915e-010 3.04208e-009 -1.38987e-009 1.60779e-009 5.27531e-009 -8.26062e-010 9.2992e-010 3.04208e-009 -7.73091 5.47488 -0.417314 -8.26057e-010 9.2992e-010 3.04207e-009 -2.90554 0.965183 -0.102902 -8.26061e-010 9.29918e-010 3.04208e-009 -10.2786 0.731801 -0.0259123 -8.26053e-010 9.29922e-010 3.04207e-009 -2.22167 -0.733487 0.20892 -2.03217e-016 0 -3.88251e-019 2.63796 -14.8809 15.4328 0.0446599 21.5892 0.337989 -4.11565 -12.2343 -14.7671 2.03217e-016 0 3.88251e-019 0.207657 -9.81797 -18.7804 0.0849535 13.7322 -0.334727 4.65362 -2.83672 24.3046 
12.1471 84.6052 -3.02388 -7.52121 0.667015 90.7575 0.442529 -10.9375 0.743597 2.41087 -2.81947 0.325757 -0.597981 12.2085 -0.782191 -4.62657 -3.77621 -2.66159 -0 0 0 -0 0 0 4.03734e-015 1.12012e-012 -2.94698e-014 86.0897 17.1476 -13.8293 -13.6089 -6.64315 24.7703 -0.12669 10.0968 1.43404 2.43435e-009 9.0587e-010 -4.61584e-009 4.1679e-009 1.57305e-009 -8.00605e-009 2.43435e-009 9.05868e-010 -4.61585e-009 7.73091 5.47488 0.417314 2.43435e-009 9.05863e-010 -4.61584e-009 2.90554 0.965183 0.102902 2.43436e-009 9.05867e-010 -4.61584e-009 10.2786 0.731801 0.0259123 2.43434e-009 9.05869e-010 -4.61583e-009 2.22167 -0.733487 -0.20892 3.91431e-015 1.12012e-012 -2.9768e-014 -89.3186 10.5192 17.4853 15.9826 -8.67101 -29.6358 0.328874 16.1006 -2.32493 -9.80978e-010 1.09983e-009 3.55377e-009 -1.65132e-009 1.90152e-009 6.16247e-009 -9.80981e-010 1.09984e-009 3.55377e-009 -7.73091 5.47488 -0.417314 -9.80976e-010 1.09984e-009 3.55376e-009 -2.90554 0.965183 -0.102902 -9.8098e-010 1.09984e-009 3.55377e-009 -10.2786 0.731801 -0.0259123 -9.80972e-010 1.09984e-009 3.55376e-009 -2.22167 -0.733487 0.20892 -2.03217e-016 0 -3.88251e-019 3.09014 -15.9365 19.0173 0.0457111 23.9705 0.369664 -5.65901 -14.3192 -18.2173 2.03217e-016 0 3.88251e-019 -0.809071 -11.2613 -22.9721 0.132652 17.1938 -0.432406 6.33977 -4.11152 29.6433 
12.1349 84.6056 -3.02147 -8.11826 5.35715 95.0975 0.271648 -11.7127 0.751209 2.5424 -3.00704 0.327717 -0.604921 13.0585 -0.831098 -5.01702 -4.03553 -2.83569 -0 0 0 -0 0 0 2.23984e-015 6.50394e-013 -2.09252e-014 92.4721 18.3429 -14.9114 -14.3482 -7.00654 26.5324 -0.149898 10.636 1.5135 2.34331e-009 8.11335e-010 -4.38526e-009 4.01263e-009 1.40932e-009 -7.60619e-009 2.34332e-009 8.11334e-010 -4.38527e-009 7.73091 5.47488 0.417314 2.34332e-009 8.1133e-010 -4.38526e-009 2.90554 0.965183 0.102902 2.34332e-009 8.11332e-010 -4.38526e-009 10.2786 0.731801 0.0259123 2.34331e-009 8.11336e-010 -4.38525e-009 2.22167 -0.733487 -0.20892 2.11725e-015 6.50395e-013 -2.12304e-014 -95.8531 11.141 18.7798 16.7744 -9.08947 -31.777 0.400858 17.1773 -2.49488 -9.34657e-010 1.10754e-009 3.46114e-009 -1.57261e-009 1.91461e-009 6.00118e-009 -9.34657e-010 1.10755e-009 3.46114e-009 -7.73091 5.47488 -0.417314 -9.34654e-010 1.10755e-009 3.46114e-009 -2.90554 0.965183 -0.102902 -9.34657e-010 1.10754e-009 3.46114e-009 -10.2786 0.731801 -0.0259123 -9.3465e-010 1.10755e-009 3.46113e-009 -2.22167 -0.733487 0.20892 -2.03217e-016 0 -3.88251e-019 3.34289 -16.2944 20.4863 0.0454449 24.8983 0.383091 -6.36801 -15.111 -19.6775 2.03217e-016 0 3.88251e-019 -1.23284 -11.79 -24.5556 0.154433 18.5476 -0.475216 7.11275 -4.68247 31.6379 
